 <svg
          width="157"
          height="40"
          viewBox="0 0 157 40"
          fill="none"
          xmlns="http://www.w3.org/2000/svg"
        >
          <g clip-path="url(#clip0_1455:21903)">
            <path
              d="M18.7155 32.9627C25.9859 32.9627 31.8797 27.0662 31.8797 19.7924C31.8797 12.5186 25.9859 6.62206 18.7155 6.62206C11.4451 6.62206 5.55127 12.5186 5.55127 19.7924C5.55127 27.0662 11.4451 32.9627 18.7155 32.9627Z"
              fill="white"
            ></path>
            <path
              d="M51.2769 27.4476C55.2296 27.4476 58.0493 25.3318 58.9053 21.9314L55.9597 21.3018C55.4058 23.5182 53.7441 24.8533 51.2769 24.8533C48.0291 24.8533 45.6122 22.6115 45.6122 18.4303C45.6122 14.2491 48.0543 11.9821 51.2769 11.9821C53.7189 11.9821 55.5065 13.4179 56.01 15.7856L58.9305 15.1559C58.301 11.6547 55.3554 9.41299 51.2769 9.41299C46.7703 9.41299 42.6162 12.4103 42.6162 18.4303C42.6162 24.4502 46.72 27.4476 51.2769 27.4476Z"
              fill="#142138"
            ></path>
            <path
              d="M60.8652 27.2461H63.6094V21.7551C63.6094 18.657 64.8934 16.8182 67.0082 16.8182C68.7202 16.8182 69.7777 17.851 69.7777 19.5385V27.2461H72.5219V18.9089C72.5219 16.1381 70.6337 14.3499 67.7635 14.3499C65.976 14.3499 64.4906 15.1559 63.6094 16.7427V9.41299H60.8652V27.2461Z"
              fill="#142138"
            ></path>
            <path
              d="M81.0065 27.4476C84.8082 27.4476 87.5524 24.7021 87.5524 20.8987C87.5524 17.0953 84.8082 14.3499 81.0065 14.3499C77.1797 14.3499 74.4607 17.0953 74.4607 20.8987C74.4607 24.7021 77.1797 27.4476 81.0065 27.4476ZM77.2301 20.8987C77.2301 18.4555 78.7406 16.7427 81.0065 16.7427C83.2472 16.7427 84.783 18.4555 84.783 20.8987C84.783 23.342 83.2472 25.0547 81.0065 25.0547C78.7406 25.0547 77.2301 23.342 77.2301 20.8987Z"
              fill="#142138"
            ></path>
            <path
              d="M91.9919 27.2461H94.5095L97.2537 18.4051L99.9983 27.2461H102.541L106.443 14.5513L103.648 14.5513L101.257 23.4176L98.5375 14.5513H95.9949L93.2507 23.4176L90.859 14.5513H88.0645L91.9919 27.2461Z"
              fill="#142138"
            ></path>
            <path
              d="M108.193 27.2461H110.987V14.2995L119.095 27.2461L122.191 27.2461V9.6145H119.372V22.5863L111.289 9.6145H108.193V27.2461Z"
              fill="#142138"
            ></path>
            <path
              d="M130.815 27.4476C134.616 27.4476 137.36 24.7021 137.36 20.8987C137.36 17.0953 134.616 14.3499 130.815 14.3499C126.988 14.3499 124.269 17.0953 124.269 20.8987C124.269 24.7021 126.988 27.4476 130.815 27.4476ZM127.038 20.8987C127.038 18.4555 128.549 16.7427 130.815 16.7427C133.055 16.7427 134.591 18.4555 134.591 20.8987C134.591 23.342 133.055 25.0547 130.815 25.0547C128.549 25.0547 127.038 23.342 127.038 20.8987Z"
              fill="#142138"
            ></path>
            <path
              d="M141.8 27.2461H144.318L147.062 18.4051L149.806 27.2461H152.349L156.251 14.5513L153.456 14.5513L151.065 23.4176L148.345 14.5513H145.803L143.059 23.4176L140.667 14.5513H137.872L141.8 27.2461Z"
              fill="#142138"
            ></path>
            <path
              d="M35.634 18.2995C35.634 8.40961 27.714 0.391434 17.9536 0.391434C8.18483 0.391434 0.264893 8.40961 0.264893 18.2995C0.264893 18.5525 0.27322 18.797 0.281548 19.0415C0.264893 19.8341 0.348173 21.6046 1.16431 23.9401C1.90551 26.2081 3.07976 28.2738 4.59545 30.0359C7.01057 33.0796 10.7498 36.3594 16.5545 39.3694C17.4289 39.8247 18.47 39.8247 19.3444 39.3694C25.149 36.351 28.8966 33.0796 31.3034 30.0359C32.8191 28.2738 33.9934 26.2081 34.7345 23.9401C35.5507 21.6131 35.634 19.8341 35.6173 19.0415C35.6256 18.7886 35.634 18.5441 35.634 18.2995ZM10.7832 10.2476C11.3578 9.66588 12.2822 9.69118 12.8318 10.2898L16.5628 14.3874L14.9472 16.1664L10.8331 12.3218C10.2335 11.7737 10.2168 10.8294 10.7832 10.2476ZM27.9888 25.0193C27.8972 25.112 27.7473 25.112 27.6473 25.0193L24.1662 21.0313C23.9248 20.7868 23.5416 20.7868 23.3002 21.0313C23.0586 21.2758 23.0586 21.6636 23.3002 21.9082L26.8146 25.8624C26.9811 26.031 26.9811 26.3178 26.8146 26.4863C26.648 26.655 26.3648 26.655 26.1983 26.4863L22.2925 22.9283C22.0509 22.6838 21.6679 22.6838 21.4263 22.9283C21.1849 23.1729 21.1849 23.5607 21.4263 23.8052L25.3655 27.3295C25.4571 27.4222 25.4571 27.574 25.3655 27.6751C25.2989 27.7426 25.1989 27.7595 25.1073 27.7341C25.1073 27.7341 22.384 26.7056 21.0017 25.306C20.1522 24.446 19.7274 23.4089 19.7107 22.4393L19.7025 22.4477C19.6942 21.4781 19.8274 20.8374 19.0029 19.9859L17.9619 19.0078L16.8626 20.0364C16.0381 21.0987 16.2296 21.8154 16.2296 22.6838L16.2213 22.6754C16.2047 23.704 15.755 24.8001 14.8555 25.7106C13.1733 27.4138 10.0587 28.3413 8.70949 26.9669C7.35202 25.5926 8.2681 22.4393 9.95032 20.7362C10.8498 19.8257 11.9324 19.3703 12.9484 19.3535L12.9401 19.3451C13.7979 19.3366 14.4808 19.5137 15.4885 18.6621L23.1086 10.2982C23.6583 9.6996 24.5826 9.67432 25.1573 10.2561C25.7319 10.8379 25.707 11.7737 25.1156 12.3302L19.4776 17.5997L20.3936 18.603C21.2265 19.4209 21.8594 19.2944 22.8171 19.3028L22.8088 19.3113C23.7748 19.3282 24.7909 19.7582 25.6403 20.6182C27.0227 22.0178 28.0305 24.7663 28.0305 24.7663C28.0721 24.8422 28.0554 24.9434 27.9888 25.0193Z"
              fill="#F94E4E"
            ></path>
          </g>
          <defs>
            <clipPath id="clip0_1455:21903">
              <rect width="157" height="40" fill="white"></rect>
            </clipPath>
          </defs>
        </svg>